<svg width="20" height="20" viewBox="0 0 20 20" fill="none" xmlns="http://www.w3.org/2000/svg">
<path d="M19.5769 2.66705L12.2442 10.0002L19.5546 17.3333C19.7015 17.4777 19.8169 17.651 19.8934 17.8422C19.9699 18.0335 20.0059 18.2385 19.9991 18.4444C19.9729 18.8484 19.8006 19.229 19.5144 19.5152C19.2282 19.8015 18.8476 19.9738 18.4436 19.9999C18.245 20.0019 18.0481 19.9636 17.8647 19.8872C17.6814 19.8108 17.5155 19.6979 17.3771 19.5555L9.99991 12.2001L2.62276 19.5555C2.34278 19.8444 1.95614 20.0044 1.55618 19.9999C1.15224 19.9738 0.771618 19.8015 0.48539 19.5152C0.199163 19.229 0.0268955 18.8484 0.00075531 18.4444C-0.00605392 18.2385 0.0299282 18.0335 0.106424 17.8422C0.182919 17.651 0.298262 17.4777 0.445162 17.3333L7.75565 10.0002L0.445162 2.68927C0.298262 2.54489 0.182919 2.3716 0.106424 2.18035C0.0299282 1.9891 -0.00605392 1.78406 0.00075531 1.57819C0.0221729 1.16669 0.195263 0.777712 0.486614 0.486344C0.777966 0.194975 1.16692 0.0218741 1.5784 0.000454827C1.77701 -0.00155579 1.97396 0.0368006 2.1573 0.113197C2.34064 0.189594 2.50655 0.302439 2.64497 0.444887L9.99991 7.80024L17.3771 0.422666C17.5173 0.284228 17.6841 0.17549 17.8674 0.102948C18.0506 0.0304052 18.2466 -0.00445332 18.4436 0.000454827C18.8476 0.0265971 19.2282 0.198874 19.5144 0.485118C19.8006 0.771362 19.9729 1.152 19.9991 1.55597C20.0088 1.76023 19.9763 1.96431 19.9036 2.15547C19.831 2.34663 19.7198 2.52077 19.5769 2.66705Z" fill="white"/>
</svg>
