<svg width="20" height="20" viewBox="0 0 20 20" fill="none" xmlns="http://www.w3.org/2000/svg">
<path d="M15.3384 5.86165C16.0012 5.86165 16.5384 5.3244 16.5384 4.66165C16.5384 3.99891 16.0012 3.46165 15.3384 3.46165C14.6757 3.46165 14.1384 3.99891 14.1384 4.66165C14.1384 5.3244 14.6757 5.86165 15.3384 5.86165Z" fill="white"/>
<path d="M9.99996 4.86482C8.98435 4.86482 7.99156 5.16598 7.14711 5.73023C6.30266 6.29447 5.6445 7.09644 5.25584 8.03474C4.86718 8.97304 4.76549 10.0055 4.96363 11.0016C5.16176 11.9977 5.65083 12.9127 6.36897 13.6308C7.08711 14.349 8.00208 14.838 8.99817 15.0362C9.99427 15.2343 11.0267 15.1326 11.965 14.7439C12.9033 14.3553 13.7053 13.6971 14.2696 12.8527C14.8338 12.0082 15.135 11.0154 15.135 9.99982C15.135 8.63794 14.594 7.33183 13.631 6.36883C12.668 5.40583 11.3618 4.86482 9.99996 4.86482ZM9.99996 13.3332C9.34069 13.3332 8.69623 13.1377 8.14806 12.7714C7.5999 12.4051 7.17266 11.8845 6.92036 11.2754C6.66807 10.6663 6.60206 9.99612 6.73068 9.34952C6.85929 8.70292 7.17676 8.10897 7.64294 7.6428C8.10911 7.17662 8.70306 6.85915 9.34966 6.73054C9.99626 6.60192 10.6665 6.66793 11.2756 6.92022C11.8847 7.17252 12.4053 7.59976 12.7715 8.14792C13.1378 8.69609 13.3333 9.34055 13.3333 9.99982C13.3333 10.8839 12.9821 11.7317 12.357 12.3568C11.7319 12.982 10.884 13.3332 9.99996 13.3332Z" fill="white"/>
<path d="M10 1.80167C12.67 1.80167 12.9867 1.81167 14.0408 1.86C14.6749 1.86753 15.3029 1.98394 15.8975 2.20417C16.3289 2.37058 16.7207 2.62545 17.0476 2.9524C17.3745 3.27934 17.6294 3.67111 17.7958 4.1025C18.0161 4.69711 18.1325 5.32513 18.14 5.95917C18.1883 7.01333 18.1983 7.33 18.1983 10.0008C18.1983 12.6717 18.1883 12.9867 18.14 14.0408C18.1325 14.6749 18.0161 15.3029 17.7958 15.8975C17.6294 16.3289 17.3745 16.7207 17.0476 17.0476C16.7207 17.3745 16.3289 17.6294 15.8975 17.7958C15.3029 18.0161 14.6749 18.1325 14.0408 18.14C12.9867 18.1883 12.67 18.1983 10 18.1983C7.33 18.1983 7.01333 18.1883 5.95917 18.14C5.32513 18.1325 4.69711 18.0161 4.1025 17.7958C3.67111 17.6294 3.27934 17.3745 2.9524 17.0476C2.62545 16.7207 2.37058 16.3289 2.20417 15.8975C1.98394 15.3029 1.86753 14.6749 1.86 14.0408C1.81167 12.9867 1.80167 12.67 1.80167 10C1.80167 7.33 1.81167 7.01333 1.86 5.95917C1.86753 5.32513 1.98394 4.69711 2.20417 4.1025C2.37058 3.67111 2.62545 3.27934 2.9524 2.9524C3.27934 2.62545 3.67111 2.37058 4.1025 2.20417C4.69711 1.98394 5.32513 1.86753 5.95917 1.86C7.01333 1.81167 7.33 1.80167 10 1.80167ZM10 0C7.28417 0 6.94333 0.0116667 5.87667 0.06C5.04731 0.0767468 4.2268 0.233974 3.45 0.525C2.7856 0.781914 2.18222 1.17481 1.67851 1.67851C1.17481 2.18222 0.781914 2.7856 0.525 3.45C0.233882 4.22706 0.0766528 5.04786 0.06 5.8775C0.0116667 6.94417 0 7.28333 0 10C0 12.7167 0.0116667 13.0567 0.06 14.1233C0.0767468 14.9527 0.233974 15.7732 0.525 16.55C0.781914 17.2144 1.17481 17.8178 1.67851 18.3215C2.18222 18.8252 2.7856 19.2181 3.45 19.475C4.22706 19.7661 5.04786 19.9233 5.8775 19.94C6.94417 19.9883 7.28417 20 10 20C12.7158 20 13.0567 19.9883 14.1233 19.94C14.953 19.9233 15.7738 19.7661 16.5508 19.475C17.2152 19.2181 17.8186 18.8252 18.3223 18.3215C18.826 17.8178 19.2189 17.2144 19.4758 16.55C19.7667 15.7729 19.9236 14.9521 19.94 14.1225C19.9883 13.0558 20 12.7167 20 10C20 7.28333 19.9883 6.94333 19.94 5.87667C19.9233 5.04731 19.766 4.2268 19.475 3.45C19.2181 2.7856 18.8252 2.18222 18.3215 1.67851C17.8178 1.17481 17.2144 0.781914 16.55 0.525C15.7729 0.234167 14.9521 0.0772193 14.1225 0.0608333C13.0558 0.0108333 12.7167 0 10 0Z" fill="white"/>
</svg>
