<svg width="13" height="18" viewBox="0 0 13 18" fill="none" xmlns="http://www.w3.org/2000/svg">
<path d="M6.50001 4.10527C6.02637 4.10527 5.56338 4.24572 5.16956 4.50886C4.77575 4.77199 4.46881 5.146 4.28756 5.58358C4.10631 6.02116 4.05888 6.50266 4.15129 6.9672C4.24369 7.43173 4.47176 7.85843 4.80667 8.19334C5.14158 8.52825 5.56828 8.75633 6.03282 8.84873C6.49735 8.94113 6.97885 8.89371 7.41643 8.71245C7.85401 8.5312 8.22802 8.22426 8.49116 7.83045C8.75429 7.43664 8.89474 6.97364 8.89474 6.50001C8.8939 5.86514 8.64133 5.25652 8.19241 4.80761C7.74349 4.35869 7.13487 4.10612 6.50001 4.10527ZM6.50001 7.69737C6.26319 7.69737 6.03169 7.62715 5.83479 7.49558C5.63788 7.36401 5.48441 7.17701 5.39378 6.95822C5.30316 6.73943 5.27945 6.49868 5.32565 6.26641C5.37185 6.03415 5.48589 5.82079 5.65334 5.65334C5.8208 5.48588 6.03415 5.37185 6.26641 5.32565C6.49868 5.27944 6.73943 5.30316 6.95822 5.39378C7.17701 5.48441 7.36401 5.63788 7.49558 5.83478C7.62715 6.03169 7.69738 6.26319 7.69738 6.50001C7.69695 6.81744 7.57067 7.12175 7.34621 7.34621C7.12175 7.57067 6.81744 7.69695 6.50001 7.69737Z" fill="white"/>
<path d="M12.9665 5.92592C12.6133 2.58174 9.85386 6.82831e-08 6.50125 6.82831e-08C5.32806 -0.000171419 4.1767 0.322666 3.16926 0.934274C2.16182 1.54588 1.33587 2.42346 0.778985 3.47394C0.222105 4.52443 -0.0449394 5.70865 0.0061733 6.90103C0.057286 8.0934 0.42465 9.24948 1.06931 10.2467L1.05416 10.2215L5.5732 17.2789C5.67369 17.4353 5.81081 17.5638 5.97223 17.653C6.13365 17.7421 6.31431 17.789 6.49797 17.7895C6.68163 17.7899 6.86252 17.744 7.02439 17.6557C7.18626 17.5675 7.32403 17.4396 7.42531 17.2838L7.4277 17.2797L11.9468 10.2223C12.6373 9.1481 13.0035 7.89161 13 6.60805C13 6.36797 12.9872 6.13112 12.9633 5.89753L12.9657 5.92673L12.9665 5.92592ZM10.9462 9.55722L6.50205 16.4978L2.05795 9.55722C1.39854 8.51877 1.10781 7.28223 1.23397 6.05263C1.36013 4.82302 1.8956 3.67422 2.75159 2.79668C3.71153 1.82011 5.03743 1.21584 6.50205 1.21584C7.96667 1.21584 9.29257 1.82011 10.2525 2.79668C11.1085 3.67422 11.644 4.82302 11.7701 6.05263C11.8963 7.28223 11.6056 8.51877 10.9462 9.55722Z" fill="white"/>
</svg>
