<svg width="16" height="16" viewBox="0 0 16 16" fill="none" xmlns="http://www.w3.org/2000/svg">
<path d="M15.3374 12.5049L15.3295 12.5003L12.0578 10.5721L12.0475 10.5663C11.983 10.5356 11.9124 10.5199 11.8409 10.5205L11.8371 10.5205C11.6848 10.5205 11.5534 10.5789 11.4725 10.66L11.4722 10.6604L10.5051 11.6282L10.496 11.6373L10.4959 11.6372C10.4063 11.7223 10.2898 11.7754 10.2444 11.7954C10.2102 11.8105 10.1727 11.8253 10.1353 11.8375L10.1352 11.8376C10.112 11.8452 10.0413 11.8683 9.95936 11.8725L9.92642 11.8741L9.89364 11.8714C9.89433 11.8715 9.88872 11.8711 9.88191 11.8704C9.8752 11.8698 9.86733 11.8689 9.85832 11.8678C9.8403 11.8656 9.81803 11.8624 9.79154 11.8577C9.73855 11.8483 9.66905 11.8331 9.58344 11.8085C9.4121 11.7592 9.1773 11.6725 8.88181 11.5201C8.29124 11.2154 7.45909 10.6487 6.40444 9.59368L15.3374 12.5049ZM15.3374 12.5049L15.3455 12.5093M15.3374 12.5049L15.3455 12.5093M15.3455 12.5093C15.4394 12.5601 15.4852 12.6334 15.4972 12.7057C15.5083 12.7782 15.487 12.8643 15.4079 12.9439C15.4079 12.944 15.4078 12.9441 15.4077 12.9442L13.1624 15.1899L13.162 15.1903C13.0265 15.3261 12.7559 15.4605 12.5641 15.4875C12.4826 15.4968 12.4005 15.5009 12.3185 15.4998L12.3185 15.4998H12.3121C11.5832 15.4998 8.58545 15.2421 4.67117 11.3271C0.0740797 6.72807 0.510488 3.44538 0.511462 3.43807C0.511463 3.43806 0.511462 3.43806 0.511462 3.43806L0.511605 3.437C0.537498 3.24385 0.673137 2.97026 0.810303 2.83378L0.810847 2.83324L3.05885 0.589624L3.05898 0.589494C3.12438 0.524174 3.19459 0.5 3.25445 0.5C3.3331 0.5 3.4239 0.544888 3.47942 0.659223L3.48338 0.667389L3.48764 0.675406L5.30095 4.0884M15.3455 12.5093L4.2389 6.57489M5.5452 5.01698L4.86321 5.69898C4.79413 5.64841 4.71303 5.60264 4.62314 5.57489V5.74431V5.74808V6.07489L4.96047 6.08163L2.70565 0.235725C2.85788 0.0836812 3.05262 0 3.25445 0C3.53971 0 3.79685 0.168277 3.92919 0.440812L5.75045 3.86877M5.5452 5.01698C5.83571 4.7257 5.9228 4.24282 5.75045 3.86877M5.5452 5.01698L5.19118 4.6639M5.5452 5.01698L5.19164 4.66343L5.19118 4.6639M5.75045 3.86877L5.29634 4.078C5.29792 4.08144 5.29946 4.08491 5.30095 4.0884M5.75045 3.86877L5.30891 4.10336L5.30095 4.0884M5.30095 4.0884C5.37901 4.27092 5.33201 4.52269 5.19118 4.6639M5.19118 4.6639L4.36695 5.48813L4.36689 5.48806L4.36004 5.49517C4.27134 5.58746 4.21826 5.70619 4.1959 5.7597C4.1739 5.81236 4.12583 5.9351 4.12324 6.06489L4.11304 6.57489H4.2389M4.2389 6.57489C4.29148 6.72337 4.36798 6.90546 4.47924 7.11995C4.78471 7.70883 5.35152 8.54069 6.40438 9.59362L4.2389 6.57489ZM0.45764 2.47934C0.242096 2.6938 0.0564953 3.06877 0.0160381 3.37057C-0.00361912 3.51484 -0.402477 6.95857 4.31754 11.6806C8.32463 15.6884 11.4492 15.9998 12.3121 15.9998L0.45764 2.47934ZM4.12624 6.13036C4.12618 6.12988 4.12644 6.13229 4.1267 6.1345L4.12637 6.13159L4.12624 6.13036Z" stroke="white"/>
</svg>
