<svg width="30" height="36" viewBox="0 0 30 36" fill="none" xmlns="http://www.w3.org/2000/svg">
<path d="M5.98591 12.0234C6.50235 12.0234 7.39437 11.8125 8.66197 11.3906L11.5493 16.0312L13.3803 13.2187L11.1268 9.42187C11.6901 8.01562 11.9718 6.86719 11.9718 5.97656C11.9718 4.33594 11.385 2.92969 10.2113 1.75781C9.03756 0.585937 7.62911 -9.77863e-07 5.98591 -1.04969e-06C4.34272 -1.12152e-06 2.93427 0.585936 1.76056 1.75781C0.586853 2.92969 -2.09688e-06 4.33594 -2.16859e-06 5.97656C-2.24031e-06 7.61719 0.586853 9.03515 1.76056 10.2305C2.93427 11.4258 4.34272 12.0234 5.98591 12.0234ZM5.98591 3.02344C6.78404 3.02344 7.48826 3.31641 8.09859 3.90234C8.70892 4.48828 9.01408 5.17969 9.01408 5.97656C9.01408 6.63281 8.84976 7.19531 8.52113 7.66406L8.09859 8.22656L7.32394 8.57812C6.90141 8.85937 6.4554 9 5.98591 9C5.18779 9 4.48357 8.70703 3.87324 8.12109C3.26291 7.53516 2.95774 6.82031 2.95774 5.97656C2.95774 5.17969 3.26291 4.48828 3.87324 3.90234C4.48357 3.31641 5.18779 3.02344 5.98591 3.02344ZM25.493 33.75C25.493 33.4219 25.3991 33.0703 25.2113 32.6953L18.4507 21.5859L16.6197 24.4687L24.0141 36C25 35.7187 25.493 34.9687 25.493 33.75ZM16.831 18.9141L21.338 11.3906C22.6056 11.8125 23.4977 12.0234 24.0141 12.0234L24.4366 12.0234C26.0329 11.8359 27.3592 11.1797 28.4155 10.0547C29.4718 8.92969 30 7.57031 30 5.97656C30 4.33594 29.4131 2.92969 28.2394 1.75781C27.0657 0.585937 25.6573 -1.89826e-07 24.0141 -2.61653e-07C22.5117 -3.27322e-07 21.1972 0.492187 20.0704 1.47656C18.9437 2.46094 18.2629 3.67969 18.0282 5.13281L18.0282 5.97656C18.0282 7.14844 18.3803 8.25 19.0845 9.28125L15 15.8906L13.169 18.7734L4.78873 31.6406C4.60094 32.0156 4.50704 32.5078 4.50704 33.1172C4.50704 34.6641 5 35.625 5.98591 36L15 21.7266L16.831 18.9141ZM22.6761 8.71875L21.9014 8.22656L21.6197 7.66406C21.1972 7.24219 20.9859 6.67969 20.9859 5.97656L20.9859 5.69531C21.1737 4.89844 21.5376 4.25391 22.0775 3.76172C22.6174 3.26953 23.2629 3.02344 24.0141 3.02344C24.8122 3.02344 25.5164 3.31641 26.1268 3.90234C26.7371 4.48828 27.0423 5.17969 27.0423 5.97656C27.0423 6.77344 26.7723 7.46484 26.2324 8.05078C25.6925 8.63672 25 8.95312 24.1549 9L24.0141 9C23.6854 9 23.2394 8.90625 22.6761 8.71875Z" fill="black"/>
</svg>
