<svg width="150" height="150" viewBox="0 0 150 150" fill="none" xmlns="http://www.w3.org/2000/svg">
<g filter="url(#filter0_d)">
<circle cx="75" cy="65" r="45" fill="white"/>
</g>
<path d="M66.9859 59.0234C67.5023 59.0234 68.3944 58.8125 69.662 58.3906L72.5493 63.0312L74.3803 60.2187L72.1268 56.4219C72.6901 55.0156 72.9718 53.8672 72.9718 52.9766C72.9718 51.3359 72.385 49.9297 71.2113 48.7578C70.0376 47.5859 68.6291 47 66.9859 47C65.3427 47 63.9343 47.5859 62.7606 48.7578C61.5869 49.9297 61 51.3359 61 52.9766C61 54.6172 61.5869 56.0352 62.7606 57.2305C63.9343 58.4258 65.3427 59.0234 66.9859 59.0234ZM66.9859 50.0234C67.784 50.0234 68.4883 50.3164 69.0986 50.9023C69.7089 51.4883 70.0141 52.1797 70.0141 52.9766C70.0141 53.6328 69.8498 54.1953 69.5211 54.6641L69.0986 55.2266L68.3239 55.5781C67.9014 55.8594 67.4554 56 66.9859 56C66.1878 56 65.4836 55.707 64.8732 55.1211C64.2629 54.5352 63.9577 53.8203 63.9577 52.9766C63.9577 52.1797 64.2629 51.4883 64.8732 50.9023C65.4836 50.3164 66.1878 50.0234 66.9859 50.0234ZM86.493 80.75C86.493 80.4219 86.3991 80.0703 86.2113 79.6953L79.4507 68.5859L77.6197 71.4687L85.0141 83C86 82.7187 86.493 81.9687 86.493 80.75ZM77.831 65.9141L82.338 58.3906C83.6056 58.8125 84.4977 59.0234 85.0141 59.0234L85.4366 59.0234C87.0329 58.8359 88.3592 58.1797 89.4155 57.0547C90.4718 55.9297 91 54.5703 91 52.9766C91 51.3359 90.4131 49.9297 89.2394 48.7578C88.0657 47.5859 86.6573 47 85.0141 47C83.5117 47 82.1972 47.4922 81.0704 48.4766C79.9437 49.4609 79.2629 50.6797 79.0282 52.1328L79.0282 52.9766C79.0282 54.1484 79.3803 55.25 80.0845 56.2812L76 62.8906L74.169 65.7734L65.7887 78.6406C65.6009 79.0156 65.507 79.5078 65.507 80.1172C65.507 81.6641 66 82.625 66.9859 83L76 68.7266L77.831 65.9141ZM83.6761 55.7187L82.9014 55.2266L82.6197 54.6641C82.1972 54.2422 81.9859 53.6797 81.9859 52.9766L81.9859 52.6953C82.1737 51.8984 82.5376 51.2539 83.0775 50.7617C83.6174 50.2695 84.2629 50.0234 85.0141 50.0234C85.8122 50.0234 86.5164 50.3164 87.1268 50.9023C87.7371 51.4883 88.0423 52.1797 88.0423 52.9766C88.0423 53.7734 87.7723 54.4648 87.2324 55.0508C86.6925 55.6367 86 55.9531 85.1549 56L85.0141 56C84.6854 56 84.2394 55.9062 83.6761 55.7187Z" fill="black"/>
<defs>
<filter id="filter0_d" x="0" y="0" width="150" height="150" filterUnits="userSpaceOnUse" color-interpolation-filters="sRGB">
<feFlood flood-opacity="0" result="BackgroundImageFix"/>
<feColorMatrix in="SourceAlpha" type="matrix" values="0 0 0 0 0 0 0 0 0 0 0 0 0 0 0 0 0 0 127 0"/>
<feOffset dy="10"/>
<feGaussianBlur stdDeviation="15"/>
<feColorMatrix type="matrix" values="0 0 0 0 0 0 0 0 0 0 0 0 0 0 0 0 0 0 0.1 0"/>
<feBlend mode="normal" in2="BackgroundImageFix" result="effect1_dropShadow"/>
<feBlend mode="normal" in="SourceGraphic" in2="effect1_dropShadow" result="shape"/>
</filter>
</defs>
</svg>
